<svg xmlns="http://www.w3.org/2000/svg" version="1.1" xmlns:xlink="http://www.w3.org/1999/xlink" xmlns:svgjs="http://svgjs.com/svgjs" width="1200" height="560" 
preserveAspectRatio="none" viewBox="0 0 1200 560">
<g mask="url(&quot;#SvgjsMask1025&quot;)" fill="none">
<path d="M1094.61-36.16C971.77-15.22 915.24 283.94 715.33 287.26 515.41 290.58 525.69 217.26 336.04 217.26 146.4 217.26 53.18 286.97-43.24 287.26" 
stroke="#6c464e" stroke-width="2"></path>
<path d="M783.84-56.05C700.36-50.3 733.04 100.75 493.36 110.25 253.67 119.75 69.02 341.05-87.61 345.45" 
stroke="#6c464e" stroke-width="2"></path>
<path d="M928.45-31.78C812.13-4.11 772.98 302.84 591.67 307.78 410.37 312.72 423.28 237.78 254.9 237.78 86.51 237.78 4.11 307.41-81.88 307.78" 
stroke="#6c464e" stroke-width="2"></path>
<path d="M657.93-63.99C535.04-33.11 527.25 269.7 306.29 301.02 85.33 332.34 53.81 480.31-45.35 485.82" 
stroke="#6c464e" stroke-width="2"></path></g><defs>
<mask id="SvgjsMask1025">
<rect width="1200" height="560" fill="#ffffff"></rect></mask></defs></svg>